<mxfile host="app.diagrams.net" modified="2023-03-02T03:23:45.147Z" agent="5.0 (Windows NT 10.0; Win64; x64) AppleWebKit/537.36 (KHTML, like Gecko) Chrome/110.0.0.0 Safari/537.36 Edg/110.0.1587.57" etag="Pc9p3_uqi9OdM3G-AjPZ" version="20.8.23" type="github">
  <diagram name="Page-1" id="2YBvvXClWsGukQMizWep">
    <mxGraphModel dx="2295" dy="695" grid="1" gridSize="10" guides="1" tooltips="1" connect="1" arrows="1" fold="1" page="1" pageScale="1" pageWidth="1100" pageHeight="850" math="0" shadow="0">
      <root>
        <mxCell id="0" />
        <mxCell id="1" parent="0" />
        <mxCell id="aM9ryv3xv72pqoxQDRHE-1" value=":Shopping Cart" style="shape=umlLifeline;perimeter=lifelinePerimeter;whiteSpace=wrap;html=1;container=0;dropTarget=0;collapsible=0;recursiveResize=0;outlineConnect=0;portConstraint=eastwest;newEdgeStyle={&quot;edgeStyle&quot;:&quot;elbowEdgeStyle&quot;,&quot;elbow&quot;:&quot;vertical&quot;,&quot;curved&quot;:0,&quot;rounded&quot;:0};" parent="1" vertex="1">
          <mxGeometry x="420" y="60" width="100" height="940" as="geometry" />
        </mxCell>
        <mxCell id="aM9ryv3xv72pqoxQDRHE-2" value="" style="html=1;points=[];perimeter=orthogonalPerimeter;outlineConnect=0;targetShapes=umlLifeline;portConstraint=eastwest;newEdgeStyle={&quot;edgeStyle&quot;:&quot;elbowEdgeStyle&quot;,&quot;elbow&quot;:&quot;vertical&quot;,&quot;curved&quot;:0,&quot;rounded&quot;:0};" parent="aM9ryv3xv72pqoxQDRHE-1" vertex="1">
          <mxGeometry x="45" y="190" width="10" height="50" as="geometry" />
        </mxCell>
        <mxCell id="WzLBoGMBvQ0cPkd2S0De-14" value="" style="html=1;points=[];perimeter=orthogonalPerimeter;outlineConnect=0;targetShapes=umlLifeline;portConstraint=eastwest;newEdgeStyle={&quot;edgeStyle&quot;:&quot;elbowEdgeStyle&quot;,&quot;elbow&quot;:&quot;vertical&quot;,&quot;curved&quot;:0,&quot;rounded&quot;:0};" parent="aM9ryv3xv72pqoxQDRHE-1" vertex="1">
          <mxGeometry x="45" y="440" width="10" height="170" as="geometry" />
        </mxCell>
        <mxCell id="WzLBoGMBvQ0cPkd2S0De-26" value="" style="html=1;points=[];perimeter=orthogonalPerimeter;outlineConnect=0;targetShapes=umlLifeline;portConstraint=eastwest;newEdgeStyle={&quot;edgeStyle&quot;:&quot;elbowEdgeStyle&quot;,&quot;elbow&quot;:&quot;vertical&quot;,&quot;curved&quot;:0,&quot;rounded&quot;:0};" parent="aM9ryv3xv72pqoxQDRHE-1" vertex="1">
          <mxGeometry x="45" y="310" width="10" height="50" as="geometry" />
        </mxCell>
        <mxCell id="WzLBoGMBvQ0cPkd2S0De-30" value="" style="html=1;points=[];perimeter=orthogonalPerimeter;outlineConnect=0;targetShapes=umlLifeline;portConstraint=eastwest;newEdgeStyle={&quot;edgeStyle&quot;:&quot;elbowEdgeStyle&quot;,&quot;elbow&quot;:&quot;vertical&quot;,&quot;curved&quot;:0,&quot;rounded&quot;:0};" parent="aM9ryv3xv72pqoxQDRHE-1" vertex="1">
          <mxGeometry x="45" y="640" width="10" height="60" as="geometry" />
        </mxCell>
        <mxCell id="WzLBoGMBvQ0cPkd2S0De-41" value="" style="html=1;points=[];perimeter=orthogonalPerimeter;outlineConnect=0;targetShapes=umlLifeline;portConstraint=eastwest;newEdgeStyle={&quot;edgeStyle&quot;:&quot;elbowEdgeStyle&quot;,&quot;elbow&quot;:&quot;vertical&quot;,&quot;curved&quot;:0,&quot;rounded&quot;:0};" parent="aM9ryv3xv72pqoxQDRHE-1" vertex="1">
          <mxGeometry x="45" y="70" width="10" height="40" as="geometry" />
        </mxCell>
        <mxCell id="aM9ryv3xv72pqoxQDRHE-5" value=":Inventory" style="shape=umlLifeline;perimeter=lifelinePerimeter;whiteSpace=wrap;html=1;container=0;dropTarget=0;collapsible=0;recursiveResize=0;outlineConnect=0;portConstraint=eastwest;newEdgeStyle={&quot;edgeStyle&quot;:&quot;elbowEdgeStyle&quot;,&quot;elbow&quot;:&quot;vertical&quot;,&quot;curved&quot;:0,&quot;rounded&quot;:0};" parent="1" vertex="1">
          <mxGeometry x="600" y="60" width="100" height="940" as="geometry" />
        </mxCell>
        <mxCell id="aM9ryv3xv72pqoxQDRHE-6" value="" style="html=1;points=[];perimeter=orthogonalPerimeter;outlineConnect=0;targetShapes=umlLifeline;portConstraint=eastwest;newEdgeStyle={&quot;edgeStyle&quot;:&quot;elbowEdgeStyle&quot;,&quot;elbow&quot;:&quot;vertical&quot;,&quot;curved&quot;:0,&quot;rounded&quot;:0};" parent="aM9ryv3xv72pqoxQDRHE-5" vertex="1">
          <mxGeometry x="45" y="730" width="10" height="60" as="geometry" />
        </mxCell>
        <mxCell id="jPpGuaEWy_2qQxv9hoCe-4" value="" style="shape=umlLifeline;perimeter=lifelinePerimeter;whiteSpace=wrap;html=1;container=1;dropTarget=0;collapsible=0;recursiveResize=0;outlineConnect=0;portConstraint=eastwest;newEdgeStyle={&quot;edgeStyle&quot;:&quot;elbowEdgeStyle&quot;,&quot;elbow&quot;:&quot;vertical&quot;,&quot;curved&quot;:0,&quot;rounded&quot;:0};participant=umlActor;" parent="1" vertex="1">
          <mxGeometry x="90" y="70" width="20" height="930" as="geometry" />
        </mxCell>
        <mxCell id="jPpGuaEWy_2qQxv9hoCe-5" value="User" style="text;strokeColor=none;align=center;fillColor=none;html=1;verticalAlign=middle;whiteSpace=wrap;rounded=0;" parent="1" vertex="1">
          <mxGeometry x="70" y="40" width="60" height="30" as="geometry" />
        </mxCell>
        <mxCell id="aM9ryv3xv72pqoxQDRHE-3" value="Ask shopping cart to remove item" style="html=1;verticalAlign=bottom;startArrow=oval;endArrow=block;startSize=8;edgeStyle=elbowEdgeStyle;elbow=vertical;curved=0;rounded=0;" parent="1" source="jPpGuaEWy_2qQxv9hoCe-4" target="WzLBoGMBvQ0cPkd2S0De-2" edge="1">
          <mxGeometry x="-0.0018" relative="1" as="geometry">
            <mxPoint x="210" y="110" as="sourcePoint" />
            <mxPoint x="240" y="130" as="targetPoint" />
            <Array as="points">
              <mxPoint x="200" y="130" />
            </Array>
            <mxPoint as="offset" />
          </mxGeometry>
        </mxCell>
        <mxCell id="WzLBoGMBvQ0cPkd2S0De-1" value=":Shopping Cart Page" style="shape=umlLifeline;perimeter=lifelinePerimeter;whiteSpace=wrap;html=1;container=0;dropTarget=0;collapsible=0;recursiveResize=0;outlineConnect=0;portConstraint=eastwest;newEdgeStyle={&quot;edgeStyle&quot;:&quot;elbowEdgeStyle&quot;,&quot;elbow&quot;:&quot;vertical&quot;,&quot;curved&quot;:0,&quot;rounded&quot;:0};" parent="1" vertex="1">
          <mxGeometry x="240" y="60" width="100" height="940" as="geometry" />
        </mxCell>
        <mxCell id="WzLBoGMBvQ0cPkd2S0De-2" value="" style="html=1;points=[];perimeter=orthogonalPerimeter;outlineConnect=0;targetShapes=umlLifeline;portConstraint=eastwest;newEdgeStyle={&quot;edgeStyle&quot;:&quot;elbowEdgeStyle&quot;,&quot;elbow&quot;:&quot;vertical&quot;,&quot;curved&quot;:0,&quot;rounded&quot;:0};" parent="WzLBoGMBvQ0cPkd2S0De-1" vertex="1">
          <mxGeometry x="45" y="70" width="10" height="300" as="geometry" />
        </mxCell>
        <mxCell id="aM9ryv3xv72pqoxQDRHE-4" value="" style="html=1;points=[];perimeter=orthogonalPerimeter;outlineConnect=0;targetShapes=umlLifeline;portConstraint=eastwest;newEdgeStyle={&quot;edgeStyle&quot;:&quot;elbowEdgeStyle&quot;,&quot;elbow&quot;:&quot;vertical&quot;,&quot;curved&quot;:0,&quot;rounded&quot;:0};" parent="WzLBoGMBvQ0cPkd2S0De-1" vertex="1">
          <mxGeometry x="50" y="230" width="10" height="90" as="geometry" />
        </mxCell>
        <mxCell id="WzLBoGMBvQ0cPkd2S0De-28" value="" style="html=1;points=[];perimeter=orthogonalPerimeter;outlineConnect=0;targetShapes=umlLifeline;portConstraint=eastwest;newEdgeStyle={&quot;edgeStyle&quot;:&quot;elbowEdgeStyle&quot;,&quot;elbow&quot;:&quot;vertical&quot;,&quot;curved&quot;:0,&quot;rounded&quot;:0};" parent="WzLBoGMBvQ0cPkd2S0De-1" vertex="1">
          <mxGeometry x="45" y="390" width="10" height="420" as="geometry" />
        </mxCell>
        <mxCell id="WzLBoGMBvQ0cPkd2S0De-17" value="" style="html=1;points=[];perimeter=orthogonalPerimeter;outlineConnect=0;targetShapes=umlLifeline;portConstraint=eastwest;newEdgeStyle={&quot;edgeStyle&quot;:&quot;elbowEdgeStyle&quot;,&quot;elbow&quot;:&quot;vertical&quot;,&quot;curved&quot;:0,&quot;rounded&quot;:0};" parent="WzLBoGMBvQ0cPkd2S0De-1" vertex="1">
          <mxGeometry x="50" y="500" width="10" height="70" as="geometry" />
        </mxCell>
        <mxCell id="WzLBoGMBvQ0cPkd2S0De-4" value="Promp user for which item to delete" style="html=1;verticalAlign=bottom;endArrow=block;edgeStyle=elbowEdgeStyle;elbow=vertical;curved=0;rounded=0;" parent="1" source="WzLBoGMBvQ0cPkd2S0De-2" target="jPpGuaEWy_2qQxv9hoCe-4" edge="1">
          <mxGeometry width="80" relative="1" as="geometry">
            <mxPoint x="150" y="170" as="sourcePoint" />
            <mxPoint x="230" y="170" as="targetPoint" />
            <Array as="points">
              <mxPoint x="200" y="190" />
              <mxPoint x="170" y="170" />
            </Array>
          </mxGeometry>
        </mxCell>
        <mxCell id="WzLBoGMBvQ0cPkd2S0De-5" value="Return item&#39;s index" style="html=1;verticalAlign=bottom;endArrow=open;dashed=1;endSize=8;edgeStyle=elbowEdgeStyle;elbow=vertical;curved=0;rounded=0;" parent="1" source="jPpGuaEWy_2qQxv9hoCe-4" target="WzLBoGMBvQ0cPkd2S0De-2" edge="1">
          <mxGeometry relative="1" as="geometry">
            <mxPoint x="230" y="209.5" as="sourcePoint" />
            <mxPoint x="150" y="209.5" as="targetPoint" />
            <Array as="points">
              <mxPoint x="220" y="240" />
              <mxPoint x="240" y="230" />
              <mxPoint x="280" y="210" />
            </Array>
          </mxGeometry>
        </mxCell>
        <mxCell id="WzLBoGMBvQ0cPkd2S0De-6" value="Check to see if index exists" style="html=1;verticalAlign=bottom;endArrow=block;edgeStyle=elbowEdgeStyle;elbow=vertical;curved=0;rounded=0;" parent="1" source="WzLBoGMBvQ0cPkd2S0De-2" target="aM9ryv3xv72pqoxQDRHE-2" edge="1">
          <mxGeometry width="80" relative="1" as="geometry">
            <mxPoint x="310" y="250" as="sourcePoint" />
            <mxPoint x="400" y="260" as="targetPoint" />
            <Array as="points">
              <mxPoint x="410" y="250" />
            </Array>
          </mxGeometry>
        </mxCell>
        <mxCell id="WzLBoGMBvQ0cPkd2S0De-7" value="Index doesn&#39;t exist" style="html=1;verticalAlign=bottom;endArrow=open;dashed=1;endSize=8;edgeStyle=elbowEdgeStyle;elbow=vertical;curved=0;rounded=0;" parent="1" source="aM9ryv3xv72pqoxQDRHE-2" target="aM9ryv3xv72pqoxQDRHE-4" edge="1">
          <mxGeometry relative="1" as="geometry">
            <mxPoint x="465" y="290" as="sourcePoint" />
            <mxPoint x="385" y="290" as="targetPoint" />
            <Array as="points">
              <mxPoint x="340" y="290" />
            </Array>
          </mxGeometry>
        </mxCell>
        <mxCell id="WzLBoGMBvQ0cPkd2S0De-8" value="Prompt user for another index" style="html=1;verticalAlign=bottom;endArrow=block;edgeStyle=elbowEdgeStyle;elbow=vertical;curved=0;rounded=0;" parent="1" source="aM9ryv3xv72pqoxQDRHE-4" target="jPpGuaEWy_2qQxv9hoCe-4" edge="1">
          <mxGeometry width="80" relative="1" as="geometry">
            <mxPoint x="275" y="330" as="sourcePoint" />
            <mxPoint x="90" y="330" as="targetPoint" />
            <Array as="points">
              <mxPoint x="220" y="300" />
              <mxPoint x="260" y="290" />
              <mxPoint x="190" y="330" />
              <mxPoint x="160" y="320" />
            </Array>
          </mxGeometry>
        </mxCell>
        <mxCell id="WzLBoGMBvQ0cPkd2S0De-9" value="Return another index" style="html=1;verticalAlign=bottom;endArrow=open;dashed=1;endSize=8;edgeStyle=elbowEdgeStyle;elbow=vertical;curved=0;rounded=0;" parent="1" source="jPpGuaEWy_2qQxv9hoCe-4" target="aM9ryv3xv72pqoxQDRHE-4" edge="1">
          <mxGeometry relative="1" as="geometry">
            <mxPoint x="230" y="350" as="sourcePoint" />
            <mxPoint x="150" y="350" as="targetPoint" />
            <Array as="points">
              <mxPoint x="240" y="360" />
            </Array>
          </mxGeometry>
        </mxCell>
        <mxCell id="WzLBoGMBvQ0cPkd2S0De-10" value="Check to see if index exists" style="html=1;verticalAlign=bottom;endArrow=block;edgeStyle=elbowEdgeStyle;elbow=vertical;curved=0;rounded=0;" parent="1" source="aM9ryv3xv72pqoxQDRHE-4" target="WzLBoGMBvQ0cPkd2S0De-26" edge="1">
          <mxGeometry width="80" relative="1" as="geometry">
            <mxPoint x="305" y="360" as="sourcePoint" />
            <mxPoint x="460" y="370" as="targetPoint" />
            <Array as="points">
              <mxPoint x="340" y="370" />
              <mxPoint x="420" y="360" />
            </Array>
          </mxGeometry>
        </mxCell>
        <mxCell id="WzLBoGMBvQ0cPkd2S0De-11" value="Index does exist" style="html=1;verticalAlign=bottom;endArrow=open;dashed=1;endSize=8;edgeStyle=elbowEdgeStyle;elbow=vertical;curved=0;rounded=0;" parent="1" source="WzLBoGMBvQ0cPkd2S0De-26" target="WzLBoGMBvQ0cPkd2S0De-2" edge="1">
          <mxGeometry relative="1" as="geometry">
            <mxPoint x="440" y="400" as="sourcePoint" />
            <mxPoint x="310" y="400" as="targetPoint" />
            <Array as="points">
              <mxPoint x="350" y="410" />
              <mxPoint x="420" y="400" />
              <mxPoint x="330" y="440" />
            </Array>
            <mxPoint as="offset" />
          </mxGeometry>
        </mxCell>
        <mxCell id="WzLBoGMBvQ0cPkd2S0De-12" value="Prompt user for amount to delete" style="html=1;verticalAlign=bottom;endArrow=block;edgeStyle=elbowEdgeStyle;elbow=vertical;curved=0;rounded=0;" parent="1" source="WzLBoGMBvQ0cPkd2S0De-28" target="jPpGuaEWy_2qQxv9hoCe-4" edge="1">
          <mxGeometry width="80" relative="1" as="geometry">
            <mxPoint x="270" y="460" as="sourcePoint" />
            <mxPoint x="400" y="500" as="targetPoint" />
            <Array as="points">
              <mxPoint x="240" y="460" />
              <mxPoint x="210" y="480" />
              <mxPoint x="410" y="490" />
            </Array>
          </mxGeometry>
        </mxCell>
        <mxCell id="WzLBoGMBvQ0cPkd2S0De-13" value="Return item amount" style="html=1;verticalAlign=bottom;endArrow=open;dashed=1;endSize=8;edgeStyle=elbowEdgeStyle;elbow=vertical;curved=0;rounded=0;" parent="1" source="jPpGuaEWy_2qQxv9hoCe-4" target="WzLBoGMBvQ0cPkd2S0De-28" edge="1">
          <mxGeometry relative="1" as="geometry">
            <mxPoint x="210" y="510" as="sourcePoint" />
            <mxPoint x="270" y="500" as="targetPoint" />
            <Array as="points">
              <mxPoint x="170" y="500" />
            </Array>
          </mxGeometry>
        </mxCell>
        <mxCell id="WzLBoGMBvQ0cPkd2S0De-15" value="Verify if amount is less than or&lt;br&gt;equal to amount in cart" style="html=1;verticalAlign=bottom;endArrow=block;edgeStyle=elbowEdgeStyle;elbow=vertical;curved=0;rounded=0;" parent="1" source="WzLBoGMBvQ0cPkd2S0De-28" target="WzLBoGMBvQ0cPkd2S0De-14" edge="1">
          <mxGeometry width="80" relative="1" as="geometry">
            <mxPoint x="310" y="520" as="sourcePoint" />
            <mxPoint x="495" y="540" as="targetPoint" />
            <Array as="points">
              <mxPoint x="430" y="520" />
              <mxPoint x="450" y="540" />
            </Array>
          </mxGeometry>
        </mxCell>
        <mxCell id="WzLBoGMBvQ0cPkd2S0De-16" value="Amount is more than &lt;br&gt;amount in cart" style="html=1;verticalAlign=bottom;endArrow=open;dashed=1;endSize=8;edgeStyle=elbowEdgeStyle;elbow=vertical;curved=0;rounded=0;" parent="1" source="WzLBoGMBvQ0cPkd2S0De-14" target="WzLBoGMBvQ0cPkd2S0De-17" edge="1">
          <mxGeometry relative="1" as="geometry">
            <mxPoint x="410" y="560" as="sourcePoint" />
            <mxPoint x="330" y="560" as="targetPoint" />
            <Array as="points">
              <mxPoint x="430" y="560" />
              <mxPoint x="330" y="550" />
              <mxPoint x="410" y="560" />
            </Array>
            <mxPoint as="offset" />
          </mxGeometry>
        </mxCell>
        <mxCell id="WzLBoGMBvQ0cPkd2S0De-18" value="Prompt user for another amount&amp;nbsp;" style="html=1;verticalAlign=bottom;endArrow=block;edgeStyle=elbowEdgeStyle;elbow=vertical;curved=0;rounded=0;" parent="1" source="WzLBoGMBvQ0cPkd2S0De-17" edge="1">
          <mxGeometry width="80" relative="1" as="geometry">
            <mxPoint x="285" y="570" as="sourcePoint" />
            <mxPoint x="100" y="570" as="targetPoint" />
            <Array as="points">
              <mxPoint x="240" y="570" />
              <mxPoint x="210" y="590" />
              <mxPoint x="410" y="600" />
            </Array>
          </mxGeometry>
        </mxCell>
        <mxCell id="WzLBoGMBvQ0cPkd2S0De-19" value="Return another amount" style="html=1;verticalAlign=bottom;endArrow=open;dashed=1;endSize=8;edgeStyle=elbowEdgeStyle;elbow=vertical;curved=0;rounded=0;" parent="1" source="jPpGuaEWy_2qQxv9hoCe-4" target="WzLBoGMBvQ0cPkd2S0De-17" edge="1">
          <mxGeometry relative="1" as="geometry">
            <mxPoint x="210" y="620" as="sourcePoint" />
            <mxPoint x="130" y="620" as="targetPoint" />
            <Array as="points">
              <mxPoint x="210" y="610" />
              <mxPoint x="140" y="620" />
            </Array>
          </mxGeometry>
        </mxCell>
        <mxCell id="WzLBoGMBvQ0cPkd2S0De-20" value="Verify if amount is less than or&lt;br&gt;equal to amount in cart" style="html=1;verticalAlign=bottom;endArrow=block;edgeStyle=elbowEdgeStyle;elbow=vertical;curved=0;rounded=0;" parent="1" target="WzLBoGMBvQ0cPkd2S0De-14" edge="1">
          <mxGeometry width="80" relative="1" as="geometry">
            <mxPoint x="300" y="610" as="sourcePoint" />
            <mxPoint x="470" y="610" as="targetPoint" />
            <Array as="points">
              <mxPoint x="310" y="620" />
              <mxPoint x="435" y="610" />
              <mxPoint x="455" y="630" />
            </Array>
          </mxGeometry>
        </mxCell>
        <mxCell id="WzLBoGMBvQ0cPkd2S0De-21" value="Amount is okay" style="html=1;verticalAlign=bottom;endArrow=open;dashed=1;endSize=8;edgeStyle=elbowEdgeStyle;elbow=vertical;curved=0;rounded=0;" parent="1" target="WzLBoGMBvQ0cPkd2S0De-28" edge="1">
          <mxGeometry relative="1" as="geometry">
            <mxPoint x="465" y="660" as="sourcePoint" />
            <mxPoint x="300" y="660" as="targetPoint" />
            <Array as="points">
              <mxPoint x="330" y="660" />
              <mxPoint x="410" y="670" />
            </Array>
            <mxPoint as="offset" />
          </mxGeometry>
        </mxCell>
        <mxCell id="WzLBoGMBvQ0cPkd2S0De-22" value="Add the amount back into the inventory" style="html=1;verticalAlign=bottom;endArrow=block;edgeStyle=elbowEdgeStyle;elbow=vertical;curved=0;rounded=0;" parent="1" source="WzLBoGMBvQ0cPkd2S0De-28" target="aM9ryv3xv72pqoxQDRHE-6" edge="1">
          <mxGeometry width="80" relative="1" as="geometry">
            <mxPoint x="310" y="730" as="sourcePoint" />
            <mxPoint x="400" y="720" as="targetPoint" />
            <Array as="points">
              <mxPoint x="350" y="790" />
              <mxPoint x="530" y="770" />
              <mxPoint x="510" y="740" />
              <mxPoint x="540" y="730" />
            </Array>
          </mxGeometry>
        </mxCell>
        <mxCell id="WzLBoGMBvQ0cPkd2S0De-23" value="Return status" style="html=1;verticalAlign=bottom;endArrow=open;dashed=1;endSize=8;edgeStyle=elbowEdgeStyle;elbow=vertical;curved=0;rounded=0;" parent="1" source="aM9ryv3xv72pqoxQDRHE-6" target="WzLBoGMBvQ0cPkd2S0De-28" edge="1">
          <mxGeometry relative="1" as="geometry">
            <mxPoint x="630" y="780" as="sourcePoint" />
            <mxPoint x="310" y="780" as="targetPoint" />
            <Array as="points">
              <mxPoint x="380" y="840" />
              <mxPoint x="560" y="830" />
              <mxPoint x="510" y="820" />
              <mxPoint x="550" y="790" />
              <mxPoint x="340" y="780" />
            </Array>
          </mxGeometry>
        </mxCell>
        <mxCell id="WzLBoGMBvQ0cPkd2S0De-24" value="Show results" style="html=1;verticalAlign=bottom;endArrow=open;dashed=1;endSize=8;edgeStyle=elbowEdgeStyle;elbow=vertical;curved=0;rounded=0;" parent="1" source="WzLBoGMBvQ0cPkd2S0De-28" target="jPpGuaEWy_2qQxv9hoCe-4" edge="1">
          <mxGeometry relative="1" as="geometry">
            <mxPoint x="250" y="800" as="sourcePoint" />
            <mxPoint x="180" y="800" as="targetPoint" />
            <Array as="points">
              <mxPoint x="260" y="860" />
              <mxPoint x="230" y="840" />
              <mxPoint x="120" y="800" />
            </Array>
          </mxGeometry>
        </mxCell>
        <mxCell id="WzLBoGMBvQ0cPkd2S0De-31" value="Delete the amount in cart" style="html=1;verticalAlign=bottom;endArrow=block;edgeStyle=elbowEdgeStyle;elbow=vertical;curved=0;rounded=0;" parent="1" source="WzLBoGMBvQ0cPkd2S0De-28" target="WzLBoGMBvQ0cPkd2S0De-30" edge="1">
          <mxGeometry width="80" relative="1" as="geometry">
            <mxPoint x="295" y="730" as="sourcePoint" />
            <mxPoint x="460" y="730" as="targetPoint" />
            <Array as="points">
              <mxPoint x="430" y="700" />
              <mxPoint x="540" y="690" />
            </Array>
            <mxPoint as="offset" />
          </mxGeometry>
        </mxCell>
        <mxCell id="WzLBoGMBvQ0cPkd2S0De-32" value="Return status" style="html=1;verticalAlign=bottom;endArrow=open;dashed=1;endSize=8;edgeStyle=elbowEdgeStyle;elbow=vertical;curved=0;rounded=0;" parent="1" source="WzLBoGMBvQ0cPkd2S0De-30" target="WzLBoGMBvQ0cPkd2S0De-28" edge="1">
          <mxGeometry relative="1" as="geometry">
            <mxPoint x="655" y="830" as="sourcePoint" />
            <mxPoint x="305" y="830" as="targetPoint" />
            <Array as="points">
              <mxPoint x="430" y="750" />
              <mxPoint x="440" y="740" />
              <mxPoint x="330" y="730" />
              <mxPoint x="400" y="730" />
              <mxPoint x="520" y="830" />
              <mxPoint x="560" y="800" />
              <mxPoint x="350" y="790" />
            </Array>
          </mxGeometry>
        </mxCell>
        <mxCell id="WzLBoGMBvQ0cPkd2S0De-33" value=":Inventory/Shopping Cart&lt;br&gt;Database" style="shape=umlLifeline;perimeter=lifelinePerimeter;whiteSpace=wrap;html=1;container=0;dropTarget=0;collapsible=0;recursiveResize=0;outlineConnect=0;portConstraint=eastwest;newEdgeStyle={&quot;edgeStyle&quot;:&quot;elbowEdgeStyle&quot;,&quot;elbow&quot;:&quot;vertical&quot;,&quot;curved&quot;:0,&quot;rounded&quot;:0};" parent="1" vertex="1">
          <mxGeometry x="800" y="60" width="130" height="960" as="geometry" />
        </mxCell>
        <mxCell id="WzLBoGMBvQ0cPkd2S0De-34" value="" style="html=1;points=[];perimeter=orthogonalPerimeter;outlineConnect=0;targetShapes=umlLifeline;portConstraint=eastwest;newEdgeStyle={&quot;edgeStyle&quot;:&quot;elbowEdgeStyle&quot;,&quot;elbow&quot;:&quot;vertical&quot;,&quot;curved&quot;:0,&quot;rounded&quot;:0};" parent="WzLBoGMBvQ0cPkd2S0De-33" vertex="1">
          <mxGeometry x="60" y="650" width="10" height="50" as="geometry" />
        </mxCell>
        <mxCell id="WzLBoGMBvQ0cPkd2S0De-38" value="" style="html=1;points=[];perimeter=orthogonalPerimeter;outlineConnect=0;targetShapes=umlLifeline;portConstraint=eastwest;newEdgeStyle={&quot;edgeStyle&quot;:&quot;elbowEdgeStyle&quot;,&quot;elbow&quot;:&quot;vertical&quot;,&quot;curved&quot;:0,&quot;rounded&quot;:0};" parent="WzLBoGMBvQ0cPkd2S0De-33" vertex="1">
          <mxGeometry x="60" y="85" width="10" height="40" as="geometry" />
        </mxCell>
        <mxCell id="WzLBoGMBvQ0cPkd2S0De-45" value="" style="html=1;points=[];perimeter=orthogonalPerimeter;outlineConnect=0;targetShapes=umlLifeline;portConstraint=eastwest;newEdgeStyle={&quot;edgeStyle&quot;:&quot;elbowEdgeStyle&quot;,&quot;elbow&quot;:&quot;vertical&quot;,&quot;curved&quot;:0,&quot;rounded&quot;:0};" parent="WzLBoGMBvQ0cPkd2S0De-33" vertex="1">
          <mxGeometry x="60" y="740" width="10" height="50" as="geometry" />
        </mxCell>
        <mxCell id="WzLBoGMBvQ0cPkd2S0De-39" value="viewCart()" style="html=1;verticalAlign=bottom;endArrow=block;edgeStyle=elbowEdgeStyle;elbow=vertical;curved=0;rounded=0;" parent="1" source="WzLBoGMBvQ0cPkd2S0De-41" target="WzLBoGMBvQ0cPkd2S0De-38" edge="1">
          <mxGeometry width="80" relative="1" as="geometry">
            <mxPoint x="550" y="140" as="sourcePoint" />
            <mxPoint x="580" y="150" as="targetPoint" />
            <Array as="points">
              <mxPoint x="540" y="150" />
              <mxPoint x="550" y="150" />
              <mxPoint x="570" y="140" />
              <mxPoint x="620" y="140" />
              <mxPoint x="600" y="130" />
              <mxPoint x="340" y="140" />
              <mxPoint x="290" y="150" />
              <mxPoint x="510" y="190" />
            </Array>
            <mxPoint as="offset" />
          </mxGeometry>
        </mxCell>
        <mxCell id="WzLBoGMBvQ0cPkd2S0De-40" value="Shows items in cart in a list" style="html=1;verticalAlign=bottom;endArrow=open;dashed=1;endSize=8;edgeStyle=elbowEdgeStyle;elbow=vertical;curved=0;rounded=0;" parent="1" source="WzLBoGMBvQ0cPkd2S0De-38" target="WzLBoGMBvQ0cPkd2S0De-2" edge="1">
          <mxGeometry x="0.0008" relative="1" as="geometry">
            <mxPoint x="630" y="170" as="sourcePoint" />
            <mxPoint x="630" y="190" as="targetPoint" />
            <Array as="points">
              <mxPoint x="680" y="180" />
              <mxPoint x="490" y="190" />
              <mxPoint x="380" y="170" />
              <mxPoint x="440" y="160" />
              <mxPoint x="390" y="170" />
            </Array>
            <mxPoint as="offset" />
          </mxGeometry>
        </mxCell>
        <mxCell id="WzLBoGMBvQ0cPkd2S0De-42" value="Shopping cart page connects to&amp;nbsp;&lt;br&gt;cart object" style="html=1;verticalAlign=bottom;endArrow=block;edgeStyle=elbowEdgeStyle;elbow=vertical;curved=0;rounded=0;" parent="1" source="WzLBoGMBvQ0cPkd2S0De-2" target="WzLBoGMBvQ0cPkd2S0De-41" edge="1">
          <mxGeometry width="80" relative="1" as="geometry">
            <mxPoint x="340" y="140" as="sourcePoint" />
            <mxPoint x="420" y="140" as="targetPoint" />
            <Array as="points">
              <mxPoint x="440" y="140" />
            </Array>
          </mxGeometry>
        </mxCell>
        <mxCell id="WzLBoGMBvQ0cPkd2S0De-43" value="removeItem(books[i], quantity))" style="html=1;verticalAlign=bottom;endArrow=block;edgeStyle=elbowEdgeStyle;elbow=vertical;curved=0;rounded=0;" parent="1" source="WzLBoGMBvQ0cPkd2S0De-30" target="WzLBoGMBvQ0cPkd2S0De-34" edge="1">
          <mxGeometry width="80" relative="1" as="geometry">
            <mxPoint x="560" y="710" as="sourcePoint" />
            <mxPoint x="640" y="710" as="targetPoint" />
            <Array as="points">
              <mxPoint x="750" y="710" />
            </Array>
          </mxGeometry>
        </mxCell>
        <mxCell id="WzLBoGMBvQ0cPkd2S0De-44" value="Delete succesfully" style="html=1;verticalAlign=bottom;endArrow=open;dashed=1;endSize=8;edgeStyle=elbowEdgeStyle;elbow=vertical;curved=0;rounded=0;" parent="1" source="WzLBoGMBvQ0cPkd2S0De-34" target="WzLBoGMBvQ0cPkd2S0De-30" edge="1">
          <mxGeometry relative="1" as="geometry">
            <mxPoint x="690" y="740" as="sourcePoint" />
            <mxPoint x="610" y="740" as="targetPoint" />
            <Array as="points">
              <mxPoint x="540" y="740" />
              <mxPoint x="590" y="750" />
              <mxPoint x="550" y="730" />
            </Array>
          </mxGeometry>
        </mxCell>
        <mxCell id="WzLBoGMBvQ0cPkd2S0De-46" value="editItem(books[i].ISBN, flag, quantity)" style="html=1;verticalAlign=bottom;endArrow=block;edgeStyle=elbowEdgeStyle;elbow=vertical;curved=0;rounded=0;" parent="1" source="aM9ryv3xv72pqoxQDRHE-6" target="WzLBoGMBvQ0cPkd2S0De-45" edge="1">
          <mxGeometry width="80" relative="1" as="geometry">
            <mxPoint x="690" y="800" as="sourcePoint" />
            <mxPoint x="770" y="800" as="targetPoint" />
            <Array as="points">
              <mxPoint x="790" y="800" />
            </Array>
          </mxGeometry>
        </mxCell>
        <mxCell id="WzLBoGMBvQ0cPkd2S0De-47" value="Added successfully" style="html=1;verticalAlign=bottom;endArrow=open;dashed=1;endSize=8;edgeStyle=elbowEdgeStyle;elbow=vertical;curved=0;rounded=0;" parent="1" source="WzLBoGMBvQ0cPkd2S0De-45" target="aM9ryv3xv72pqoxQDRHE-6" edge="1">
          <mxGeometry relative="1" as="geometry">
            <mxPoint x="790" y="830.22" as="sourcePoint" />
            <mxPoint x="710" y="830.22" as="targetPoint" />
            <Array as="points">
              <mxPoint x="740" y="830" />
            </Array>
          </mxGeometry>
        </mxCell>
        <mxCell id="kBUpviV7Oowvi01GxtMe-9" value=":Inventory" style="shape=umlLifeline;perimeter=lifelinePerimeter;whiteSpace=wrap;html=1;container=0;dropTarget=0;collapsible=0;recursiveResize=0;outlineConnect=0;portConstraint=eastwest;newEdgeStyle={&quot;edgeStyle&quot;:&quot;elbowEdgeStyle&quot;,&quot;elbow&quot;:&quot;vertical&quot;,&quot;curved&quot;:0,&quot;rounded&quot;:0};" vertex="1" parent="1">
          <mxGeometry x="600" y="1080" width="100" height="940" as="geometry" />
        </mxCell>
        <mxCell id="kBUpviV7Oowvi01GxtMe-10" value="" style="html=1;points=[];perimeter=orthogonalPerimeter;outlineConnect=0;targetShapes=umlLifeline;portConstraint=eastwest;newEdgeStyle={&quot;edgeStyle&quot;:&quot;elbowEdgeStyle&quot;,&quot;elbow&quot;:&quot;vertical&quot;,&quot;curved&quot;:0,&quot;rounded&quot;:0};" vertex="1" parent="kBUpviV7Oowvi01GxtMe-9">
          <mxGeometry x="45" y="730" width="10" height="60" as="geometry" />
        </mxCell>
        <mxCell id="kBUpviV7Oowvi01GxtMe-11" value="" style="shape=umlLifeline;perimeter=lifelinePerimeter;whiteSpace=wrap;html=1;container=1;dropTarget=0;collapsible=0;recursiveResize=0;outlineConnect=0;portConstraint=eastwest;newEdgeStyle={&quot;edgeStyle&quot;:&quot;elbowEdgeStyle&quot;,&quot;elbow&quot;:&quot;vertical&quot;,&quot;curved&quot;:0,&quot;rounded&quot;:0};participant=umlActor;" vertex="1" parent="1">
          <mxGeometry x="90" y="1090" width="20" height="930" as="geometry" />
        </mxCell>
        <mxCell id="kBUpviV7Oowvi01GxtMe-12" value="User" style="text;strokeColor=none;align=center;fillColor=none;html=1;verticalAlign=middle;whiteSpace=wrap;rounded=0;" vertex="1" parent="1">
          <mxGeometry x="70" y="1060" width="60" height="30" as="geometry" />
        </mxCell>
        <mxCell id="kBUpviV7Oowvi01GxtMe-13" value="Ask shopping cart to remove item" style="html=1;verticalAlign=bottom;startArrow=oval;endArrow=block;startSize=8;edgeStyle=elbowEdgeStyle;elbow=vertical;curved=0;rounded=0;" edge="1" source="kBUpviV7Oowvi01GxtMe-11" target="kBUpviV7Oowvi01GxtMe-15" parent="1">
          <mxGeometry x="-0.0018" relative="1" as="geometry">
            <mxPoint x="210" y="1130" as="sourcePoint" />
            <mxPoint x="240" y="1150" as="targetPoint" />
            <Array as="points">
              <mxPoint x="200" y="1150" />
            </Array>
            <mxPoint as="offset" />
          </mxGeometry>
        </mxCell>
        <mxCell id="kBUpviV7Oowvi01GxtMe-14" value=":Shopping Cart/&lt;br&gt;Shopping Cart Page" style="shape=umlLifeline;perimeter=lifelinePerimeter;whiteSpace=wrap;html=1;container=0;dropTarget=0;collapsible=0;recursiveResize=0;outlineConnect=0;portConstraint=eastwest;newEdgeStyle={&quot;edgeStyle&quot;:&quot;elbowEdgeStyle&quot;,&quot;elbow&quot;:&quot;vertical&quot;,&quot;curved&quot;:0,&quot;rounded&quot;:0};" vertex="1" parent="1">
          <mxGeometry x="310" y="1080" width="100" height="940" as="geometry" />
        </mxCell>
        <mxCell id="kBUpviV7Oowvi01GxtMe-15" value="" style="html=1;points=[];perimeter=orthogonalPerimeter;outlineConnect=0;targetShapes=umlLifeline;portConstraint=eastwest;newEdgeStyle={&quot;edgeStyle&quot;:&quot;elbowEdgeStyle&quot;,&quot;elbow&quot;:&quot;vertical&quot;,&quot;curved&quot;:0,&quot;rounded&quot;:0};" vertex="1" parent="kBUpviV7Oowvi01GxtMe-14">
          <mxGeometry x="45" y="70" width="10" height="270" as="geometry" />
        </mxCell>
        <mxCell id="kBUpviV7Oowvi01GxtMe-17" value="" style="html=1;points=[];perimeter=orthogonalPerimeter;outlineConnect=0;targetShapes=umlLifeline;portConstraint=eastwest;newEdgeStyle={&quot;edgeStyle&quot;:&quot;elbowEdgeStyle&quot;,&quot;elbow&quot;:&quot;vertical&quot;,&quot;curved&quot;:0,&quot;rounded&quot;:0};" vertex="1" parent="kBUpviV7Oowvi01GxtMe-14">
          <mxGeometry x="45" y="390" width="10" height="420" as="geometry" />
        </mxCell>
        <mxCell id="kBUpviV7Oowvi01GxtMe-18" value="" style="html=1;points=[];perimeter=orthogonalPerimeter;outlineConnect=0;targetShapes=umlLifeline;portConstraint=eastwest;newEdgeStyle={&quot;edgeStyle&quot;:&quot;elbowEdgeStyle&quot;,&quot;elbow&quot;:&quot;vertical&quot;,&quot;curved&quot;:0,&quot;rounded&quot;:0};" vertex="1" parent="kBUpviV7Oowvi01GxtMe-14">
          <mxGeometry x="50" y="500" width="10" height="70" as="geometry" />
        </mxCell>
        <mxCell id="kBUpviV7Oowvi01GxtMe-52" value="Check to see if index exists" style="html=1;align=left;spacingLeft=2;endArrow=block;rounded=0;edgeStyle=orthogonalEdgeStyle;curved=0;rounded=0;" edge="1" target="kBUpviV7Oowvi01GxtMe-15" parent="kBUpviV7Oowvi01GxtMe-14" source="kBUpviV7Oowvi01GxtMe-15">
          <mxGeometry x="-0.084" y="-140" relative="1" as="geometry">
            <mxPoint x="280" y="180" as="sourcePoint" />
            <Array as="points">
              <mxPoint y="190" />
              <mxPoint y="220" />
            </Array>
            <mxPoint x="40" y="230.03448275862092" as="targetPoint" />
            <mxPoint as="offset" />
          </mxGeometry>
        </mxCell>
        <mxCell id="kBUpviV7Oowvi01GxtMe-19" value="Promp user for which item to delete" style="html=1;verticalAlign=bottom;endArrow=block;edgeStyle=elbowEdgeStyle;elbow=vertical;curved=0;rounded=0;" edge="1" source="kBUpviV7Oowvi01GxtMe-15" target="kBUpviV7Oowvi01GxtMe-11" parent="1">
          <mxGeometry width="80" relative="1" as="geometry">
            <mxPoint x="150" y="1190" as="sourcePoint" />
            <mxPoint x="230" y="1190" as="targetPoint" />
            <Array as="points">
              <mxPoint x="200" y="1210" />
              <mxPoint x="170" y="1190" />
            </Array>
          </mxGeometry>
        </mxCell>
        <mxCell id="kBUpviV7Oowvi01GxtMe-20" value="Return item&#39;s index" style="html=1;verticalAlign=bottom;endArrow=open;dashed=1;endSize=8;edgeStyle=elbowEdgeStyle;elbow=vertical;curved=0;rounded=0;" edge="1" source="kBUpviV7Oowvi01GxtMe-11" target="kBUpviV7Oowvi01GxtMe-15" parent="1">
          <mxGeometry relative="1" as="geometry">
            <mxPoint x="230" y="1229.5" as="sourcePoint" />
            <mxPoint x="150" y="1229.5" as="targetPoint" />
            <Array as="points">
              <mxPoint x="220" y="1260" />
              <mxPoint x="240" y="1250" />
              <mxPoint x="280" y="1230" />
            </Array>
          </mxGeometry>
        </mxCell>
        <mxCell id="kBUpviV7Oowvi01GxtMe-23" value="Prompt user for another index" style="html=1;verticalAlign=bottom;endArrow=block;edgeStyle=elbowEdgeStyle;elbow=vertical;curved=0;rounded=0;" edge="1" source="kBUpviV7Oowvi01GxtMe-15" target="kBUpviV7Oowvi01GxtMe-11" parent="1">
          <mxGeometry width="80" relative="1" as="geometry">
            <mxPoint x="350" y="1340" as="sourcePoint" />
            <mxPoint x="90" y="1350" as="targetPoint" />
            <Array as="points">
              <mxPoint x="250" y="1340" />
              <mxPoint x="220" y="1330" />
              <mxPoint x="240" y="1320" />
              <mxPoint x="220" y="1320" />
              <mxPoint x="260" y="1310" />
              <mxPoint x="190" y="1350" />
              <mxPoint x="160" y="1340" />
            </Array>
          </mxGeometry>
        </mxCell>
        <mxCell id="kBUpviV7Oowvi01GxtMe-27" value="Prompt user for amount to delete" style="html=1;verticalAlign=bottom;endArrow=block;edgeStyle=elbowEdgeStyle;elbow=vertical;curved=0;rounded=0;" edge="1" source="kBUpviV7Oowvi01GxtMe-15" target="kBUpviV7Oowvi01GxtMe-11" parent="1">
          <mxGeometry width="80" relative="1" as="geometry">
            <mxPoint x="270" y="1480" as="sourcePoint" />
            <mxPoint x="400" y="1520" as="targetPoint" />
            <Array as="points">
              <mxPoint x="330" y="1400" />
              <mxPoint x="310" y="1380" />
              <mxPoint x="240" y="1480" />
              <mxPoint x="210" y="1500" />
              <mxPoint x="410" y="1510" />
            </Array>
          </mxGeometry>
        </mxCell>
        <mxCell id="kBUpviV7Oowvi01GxtMe-28" value="Return item amount" style="html=1;verticalAlign=bottom;endArrow=open;dashed=1;endSize=8;edgeStyle=elbowEdgeStyle;elbow=vertical;curved=0;rounded=0;" edge="1" source="kBUpviV7Oowvi01GxtMe-11" target="kBUpviV7Oowvi01GxtMe-17" parent="1">
          <mxGeometry relative="1" as="geometry">
            <mxPoint x="210" y="1530" as="sourcePoint" />
            <mxPoint x="270" y="1520" as="targetPoint" />
            <Array as="points">
              <mxPoint x="170" y="1520" />
            </Array>
          </mxGeometry>
        </mxCell>
        <mxCell id="kBUpviV7Oowvi01GxtMe-29" value="Verify if amount is less than or&lt;br&gt;equal to amount in cart" style="html=1;verticalAlign=bottom;endArrow=block;edgeStyle=elbowEdgeStyle;elbow=vertical;curved=0;rounded=0;" edge="1" source="kBUpviV7Oowvi01GxtMe-17" parent="1">
          <mxGeometry width="80" relative="1" as="geometry">
            <mxPoint x="310" y="1540" as="sourcePoint" />
            <mxPoint x="464.9999999999998" y="1540" as="targetPoint" />
            <Array as="points">
              <mxPoint x="430" y="1540" />
              <mxPoint x="450" y="1560" />
            </Array>
          </mxGeometry>
        </mxCell>
        <mxCell id="kBUpviV7Oowvi01GxtMe-30" value="Amount is more than &lt;br&gt;amount in cart" style="html=1;verticalAlign=bottom;endArrow=open;dashed=1;endSize=8;edgeStyle=elbowEdgeStyle;elbow=vertical;curved=0;rounded=0;" edge="1" target="kBUpviV7Oowvi01GxtMe-18" parent="1">
          <mxGeometry relative="1" as="geometry">
            <mxPoint x="464.9999999999998" y="1580" as="sourcePoint" />
            <mxPoint x="330" y="1580" as="targetPoint" />
            <Array as="points">
              <mxPoint x="430" y="1580" />
              <mxPoint x="330" y="1570" />
              <mxPoint x="410" y="1580" />
            </Array>
            <mxPoint as="offset" />
          </mxGeometry>
        </mxCell>
        <mxCell id="kBUpviV7Oowvi01GxtMe-31" value="Prompt user for another amount&amp;nbsp;" style="html=1;verticalAlign=bottom;endArrow=block;edgeStyle=elbowEdgeStyle;elbow=vertical;curved=0;rounded=0;" edge="1" source="kBUpviV7Oowvi01GxtMe-18" parent="1">
          <mxGeometry width="80" relative="1" as="geometry">
            <mxPoint x="285" y="1590" as="sourcePoint" />
            <mxPoint x="100" y="1590" as="targetPoint" />
            <Array as="points">
              <mxPoint x="240" y="1590" />
              <mxPoint x="210" y="1610" />
              <mxPoint x="410" y="1620" />
            </Array>
          </mxGeometry>
        </mxCell>
        <mxCell id="kBUpviV7Oowvi01GxtMe-32" value="Return another amount" style="html=1;verticalAlign=bottom;endArrow=open;dashed=1;endSize=8;edgeStyle=elbowEdgeStyle;elbow=vertical;curved=0;rounded=0;" edge="1" source="kBUpviV7Oowvi01GxtMe-11" target="kBUpviV7Oowvi01GxtMe-18" parent="1">
          <mxGeometry relative="1" as="geometry">
            <mxPoint x="210" y="1640" as="sourcePoint" />
            <mxPoint x="130" y="1640" as="targetPoint" />
            <Array as="points">
              <mxPoint x="210" y="1630" />
              <mxPoint x="140" y="1640" />
            </Array>
          </mxGeometry>
        </mxCell>
        <mxCell id="kBUpviV7Oowvi01GxtMe-33" value="Verify if amount is less than or&lt;br&gt;equal to amount in cart" style="html=1;verticalAlign=bottom;endArrow=block;edgeStyle=elbowEdgeStyle;elbow=vertical;curved=0;rounded=0;" edge="1" parent="1">
          <mxGeometry width="80" relative="1" as="geometry">
            <mxPoint x="300" y="1630" as="sourcePoint" />
            <mxPoint x="464.9999999999998" y="1640" as="targetPoint" />
            <Array as="points">
              <mxPoint x="310" y="1640" />
              <mxPoint x="435" y="1630" />
              <mxPoint x="455" y="1650" />
            </Array>
          </mxGeometry>
        </mxCell>
        <mxCell id="kBUpviV7Oowvi01GxtMe-34" value="Amount is okay" style="html=1;verticalAlign=bottom;endArrow=open;dashed=1;endSize=8;edgeStyle=elbowEdgeStyle;elbow=vertical;curved=0;rounded=0;" edge="1" target="kBUpviV7Oowvi01GxtMe-17" parent="1">
          <mxGeometry relative="1" as="geometry">
            <mxPoint x="465" y="1680" as="sourcePoint" />
            <mxPoint x="300" y="1680" as="targetPoint" />
            <Array as="points">
              <mxPoint x="330" y="1680" />
              <mxPoint x="410" y="1690" />
            </Array>
            <mxPoint as="offset" />
          </mxGeometry>
        </mxCell>
        <mxCell id="kBUpviV7Oowvi01GxtMe-35" value="Add the amount back into the inventory" style="html=1;verticalAlign=bottom;endArrow=block;edgeStyle=elbowEdgeStyle;elbow=vertical;curved=0;rounded=0;" edge="1" source="kBUpviV7Oowvi01GxtMe-17" target="kBUpviV7Oowvi01GxtMe-10" parent="1">
          <mxGeometry width="80" relative="1" as="geometry">
            <mxPoint x="310" y="1750" as="sourcePoint" />
            <mxPoint x="400" y="1740" as="targetPoint" />
            <Array as="points">
              <mxPoint x="350" y="1810" />
              <mxPoint x="530" y="1790" />
              <mxPoint x="510" y="1760" />
              <mxPoint x="540" y="1750" />
            </Array>
          </mxGeometry>
        </mxCell>
        <mxCell id="kBUpviV7Oowvi01GxtMe-36" value="Return status" style="html=1;verticalAlign=bottom;endArrow=open;dashed=1;endSize=8;edgeStyle=elbowEdgeStyle;elbow=vertical;curved=0;rounded=0;" edge="1" source="kBUpviV7Oowvi01GxtMe-10" target="kBUpviV7Oowvi01GxtMe-17" parent="1">
          <mxGeometry relative="1" as="geometry">
            <mxPoint x="630" y="1800" as="sourcePoint" />
            <mxPoint x="310" y="1800" as="targetPoint" />
            <Array as="points">
              <mxPoint x="380" y="1860" />
              <mxPoint x="560" y="1850" />
              <mxPoint x="510" y="1840" />
              <mxPoint x="550" y="1810" />
              <mxPoint x="340" y="1800" />
            </Array>
          </mxGeometry>
        </mxCell>
        <mxCell id="kBUpviV7Oowvi01GxtMe-37" value="Show results" style="html=1;verticalAlign=bottom;endArrow=open;dashed=1;endSize=8;edgeStyle=elbowEdgeStyle;elbow=vertical;curved=0;rounded=0;" edge="1" source="kBUpviV7Oowvi01GxtMe-17" target="kBUpviV7Oowvi01GxtMe-11" parent="1">
          <mxGeometry relative="1" as="geometry">
            <mxPoint x="250" y="1820" as="sourcePoint" />
            <mxPoint x="180" y="1820" as="targetPoint" />
            <Array as="points">
              <mxPoint x="260" y="1880" />
              <mxPoint x="230" y="1860" />
              <mxPoint x="120" y="1820" />
            </Array>
          </mxGeometry>
        </mxCell>
        <mxCell id="kBUpviV7Oowvi01GxtMe-38" value="Delete the amount in cart" style="html=1;verticalAlign=bottom;endArrow=block;edgeStyle=elbowEdgeStyle;elbow=vertical;curved=0;rounded=0;" edge="1" source="kBUpviV7Oowvi01GxtMe-17" parent="1">
          <mxGeometry width="80" relative="1" as="geometry">
            <mxPoint x="295" y="1750" as="sourcePoint" />
            <mxPoint x="464.9999999999998" y="1720" as="targetPoint" />
            <Array as="points">
              <mxPoint x="430" y="1720" />
              <mxPoint x="540" y="1710" />
            </Array>
            <mxPoint as="offset" />
          </mxGeometry>
        </mxCell>
        <mxCell id="kBUpviV7Oowvi01GxtMe-39" value="Return status" style="html=1;verticalAlign=bottom;endArrow=open;dashed=1;endSize=8;edgeStyle=elbowEdgeStyle;elbow=vertical;curved=0;rounded=0;" edge="1" target="kBUpviV7Oowvi01GxtMe-17" parent="1">
          <mxGeometry relative="1" as="geometry">
            <mxPoint x="464.9999999999998" y="1770" as="sourcePoint" />
            <mxPoint x="305" y="1850" as="targetPoint" />
            <Array as="points">
              <mxPoint x="430" y="1770" />
              <mxPoint x="440" y="1760" />
              <mxPoint x="330" y="1750" />
              <mxPoint x="400" y="1750" />
              <mxPoint x="520" y="1850" />
              <mxPoint x="560" y="1820" />
              <mxPoint x="350" y="1810" />
            </Array>
          </mxGeometry>
        </mxCell>
        <mxCell id="kBUpviV7Oowvi01GxtMe-40" value=":Inventory/Shopping Cart&lt;br&gt;Database" style="shape=umlLifeline;perimeter=lifelinePerimeter;whiteSpace=wrap;html=1;container=0;dropTarget=0;collapsible=0;recursiveResize=0;outlineConnect=0;portConstraint=eastwest;newEdgeStyle={&quot;edgeStyle&quot;:&quot;elbowEdgeStyle&quot;,&quot;elbow&quot;:&quot;vertical&quot;,&quot;curved&quot;:0,&quot;rounded&quot;:0};" vertex="1" parent="1">
          <mxGeometry x="800" y="1080" width="130" height="960" as="geometry" />
        </mxCell>
        <mxCell id="kBUpviV7Oowvi01GxtMe-41" value="" style="html=1;points=[];perimeter=orthogonalPerimeter;outlineConnect=0;targetShapes=umlLifeline;portConstraint=eastwest;newEdgeStyle={&quot;edgeStyle&quot;:&quot;elbowEdgeStyle&quot;,&quot;elbow&quot;:&quot;vertical&quot;,&quot;curved&quot;:0,&quot;rounded&quot;:0};" vertex="1" parent="kBUpviV7Oowvi01GxtMe-40">
          <mxGeometry x="60" y="650" width="10" height="50" as="geometry" />
        </mxCell>
        <mxCell id="kBUpviV7Oowvi01GxtMe-42" value="" style="html=1;points=[];perimeter=orthogonalPerimeter;outlineConnect=0;targetShapes=umlLifeline;portConstraint=eastwest;newEdgeStyle={&quot;edgeStyle&quot;:&quot;elbowEdgeStyle&quot;,&quot;elbow&quot;:&quot;vertical&quot;,&quot;curved&quot;:0,&quot;rounded&quot;:0};" vertex="1" parent="kBUpviV7Oowvi01GxtMe-40">
          <mxGeometry x="60" y="85" width="10" height="40" as="geometry" />
        </mxCell>
        <mxCell id="kBUpviV7Oowvi01GxtMe-43" value="" style="html=1;points=[];perimeter=orthogonalPerimeter;outlineConnect=0;targetShapes=umlLifeline;portConstraint=eastwest;newEdgeStyle={&quot;edgeStyle&quot;:&quot;elbowEdgeStyle&quot;,&quot;elbow&quot;:&quot;vertical&quot;,&quot;curved&quot;:0,&quot;rounded&quot;:0};" vertex="1" parent="kBUpviV7Oowvi01GxtMe-40">
          <mxGeometry x="60" y="740" width="10" height="50" as="geometry" />
        </mxCell>
        <mxCell id="kBUpviV7Oowvi01GxtMe-44" value="viewCart()" style="html=1;verticalAlign=bottom;endArrow=block;edgeStyle=elbowEdgeStyle;elbow=vertical;curved=0;rounded=0;" edge="1" source="kBUpviV7Oowvi01GxtMe-15" target="kBUpviV7Oowvi01GxtMe-42" parent="1">
          <mxGeometry width="80" relative="1" as="geometry">
            <mxPoint x="474.9999999999998" y="1170" as="sourcePoint" />
            <mxPoint x="580" y="1170" as="targetPoint" />
            <Array as="points">
              <mxPoint x="540" y="1170" />
              <mxPoint x="550" y="1170" />
              <mxPoint x="570" y="1160" />
              <mxPoint x="620" y="1160" />
              <mxPoint x="600" y="1150" />
              <mxPoint x="340" y="1160" />
              <mxPoint x="290" y="1170" />
              <mxPoint x="510" y="1210" />
            </Array>
            <mxPoint as="offset" />
          </mxGeometry>
        </mxCell>
        <mxCell id="kBUpviV7Oowvi01GxtMe-45" value="Shows items in cart in a list" style="html=1;verticalAlign=bottom;endArrow=open;dashed=1;endSize=8;edgeStyle=elbowEdgeStyle;elbow=vertical;curved=0;rounded=0;" edge="1" source="kBUpviV7Oowvi01GxtMe-42" target="kBUpviV7Oowvi01GxtMe-15" parent="1">
          <mxGeometry x="0.0008" relative="1" as="geometry">
            <mxPoint x="630" y="1190" as="sourcePoint" />
            <mxPoint x="630" y="1210" as="targetPoint" />
            <Array as="points">
              <mxPoint x="680" y="1200" />
              <mxPoint x="490" y="1210" />
              <mxPoint x="380" y="1190" />
              <mxPoint x="440" y="1180" />
              <mxPoint x="390" y="1190" />
            </Array>
            <mxPoint as="offset" />
          </mxGeometry>
        </mxCell>
        <mxCell id="kBUpviV7Oowvi01GxtMe-47" value="removeItem(books[i], quantity))" style="html=1;verticalAlign=bottom;endArrow=block;edgeStyle=elbowEdgeStyle;elbow=vertical;curved=0;rounded=0;" edge="1" target="kBUpviV7Oowvi01GxtMe-41" parent="1">
          <mxGeometry width="80" relative="1" as="geometry">
            <mxPoint x="474.9999999999998" y="1730" as="sourcePoint" />
            <mxPoint x="640" y="1730" as="targetPoint" />
            <Array as="points">
              <mxPoint x="750" y="1730" />
            </Array>
          </mxGeometry>
        </mxCell>
        <mxCell id="kBUpviV7Oowvi01GxtMe-48" value="Delete succesfully" style="html=1;verticalAlign=bottom;endArrow=open;dashed=1;endSize=8;edgeStyle=elbowEdgeStyle;elbow=vertical;curved=0;rounded=0;" edge="1" source="kBUpviV7Oowvi01GxtMe-41" parent="1">
          <mxGeometry relative="1" as="geometry">
            <mxPoint x="690" y="1760" as="sourcePoint" />
            <mxPoint x="474.9999999999998" y="1760" as="targetPoint" />
            <Array as="points">
              <mxPoint x="540" y="1760" />
              <mxPoint x="590" y="1770" />
              <mxPoint x="550" y="1750" />
            </Array>
          </mxGeometry>
        </mxCell>
        <mxCell id="kBUpviV7Oowvi01GxtMe-49" value="editItem(books[i].ISBN, flag, quantity)" style="html=1;verticalAlign=bottom;endArrow=block;edgeStyle=elbowEdgeStyle;elbow=vertical;curved=0;rounded=0;" edge="1" source="kBUpviV7Oowvi01GxtMe-10" target="kBUpviV7Oowvi01GxtMe-43" parent="1">
          <mxGeometry width="80" relative="1" as="geometry">
            <mxPoint x="690" y="1820" as="sourcePoint" />
            <mxPoint x="770" y="1820" as="targetPoint" />
            <Array as="points">
              <mxPoint x="790" y="1820" />
            </Array>
          </mxGeometry>
        </mxCell>
        <mxCell id="kBUpviV7Oowvi01GxtMe-50" value="Added successfully" style="html=1;verticalAlign=bottom;endArrow=open;dashed=1;endSize=8;edgeStyle=elbowEdgeStyle;elbow=vertical;curved=0;rounded=0;" edge="1" source="kBUpviV7Oowvi01GxtMe-43" target="kBUpviV7Oowvi01GxtMe-10" parent="1">
          <mxGeometry relative="1" as="geometry">
            <mxPoint x="790" y="1850.22" as="sourcePoint" />
            <mxPoint x="710" y="1850.22" as="targetPoint" />
            <Array as="points">
              <mxPoint x="740" y="1850" />
            </Array>
          </mxGeometry>
        </mxCell>
        <mxCell id="kBUpviV7Oowvi01GxtMe-55" value="Alternative" style="shape=umlFrame;whiteSpace=wrap;html=1;pointerEvents=0;" vertex="1" parent="1">
          <mxGeometry x="-40" y="1310" width="750" height="130" as="geometry" />
        </mxCell>
        <mxCell id="kBUpviV7Oowvi01GxtMe-56" value="" style="endArrow=none;dashed=1;html=1;dashPattern=1 3;strokeWidth=2;rounded=0;exitX=1;exitY=0.5;exitDx=0;exitDy=0;exitPerimeter=0;entryX=-0.003;entryY=0.505;entryDx=0;entryDy=0;entryPerimeter=0;" edge="1" parent="1" source="kBUpviV7Oowvi01GxtMe-55" target="kBUpviV7Oowvi01GxtMe-55">
          <mxGeometry width="50" height="50" relative="1" as="geometry">
            <mxPoint x="722" y="1380.5" as="sourcePoint" />
            <mxPoint y="1379.5" as="targetPoint" />
            <Array as="points" />
          </mxGeometry>
        </mxCell>
        <mxCell id="kBUpviV7Oowvi01GxtMe-57" value="[if index doesn&#39;t exist]" style="text;html=1;align=center;verticalAlign=middle;resizable=0;points=[];autosize=1;strokeColor=none;fillColor=none;" vertex="1" parent="1">
          <mxGeometry x="-45" y="1340" width="140" height="30" as="geometry" />
        </mxCell>
        <mxCell id="kBUpviV7Oowvi01GxtMe-59" value="[if index does exist]" style="text;html=1;align=center;verticalAlign=middle;resizable=0;points=[];autosize=1;strokeColor=none;fillColor=none;" vertex="1" parent="1">
          <mxGeometry x="-40" y="1390" width="130" height="30" as="geometry" />
        </mxCell>
      </root>
    </mxGraphModel>
  </diagram>
</mxfile>
